<svg width="64" height="64" xmlns="http://www.w3.org/2000/svg" fill="none"><path fill="#3F27BA" d="M0 0h64v64H0z"/><path fill="#fff" d="M32 29.5c-3.469 0-6.75-2.625-7.406-6h-4.5C20.844 29.5 25.812 34 32 34c6.094 0 11.063-4.5 11.813-10.5h-4.5c-.657 3.375-3.938 6-7.313 6zm8.344 7.5c-2.719 0-3.938 1.5-8.344 1.5-4.5 0-5.719-1.5-8.438-1.5C16.625 37 11 42.719 11 49.656A2.321 2.321 0 0 0 13.344 52h37.218C51.876 52 53 50.969 53 49.656 53 42.72 47.281 37 40.344 37zM15.687 47.5c.938-3.281 4.407-5.906 7.876-6 1.312 0 3.562 1.5 8.437 1.5 4.781 0 7.031-1.5 8.344-1.5 3.469.094 6.937 2.719 7.875 6H15.687zm3.563-27h25.5a.74.74 0 0 0 .75-.75v-3c0-.375-.375-.75-.75-.75H44c0-4.313-2.719-7.969-6.469-9.563L35 11.5v-6c0-.75-.75-1.5-1.5-1.5h-3c-.844 0-1.5.75-1.5 1.5v6l-2.625-5.063C22.625 8.031 20 11.688 20 16h-.75a.74.74 0 0 0-.75.75v3c0 .469.281.75.75.75z"/></svg>